<?xml version="1.0" encoding="iso-8859-1"?>
<!-- Generator: Adobe Illustrator 19.0.0, SVG Export Plug-In . SVG Version: 6.00 Build 0)  -->
<svg version="1.1" id="Capa_1" xmlns="http://www.w3.org/2000/svg" xmlns:xlink="http://www.w3.org/1999/xlink" x="0px" y="0px"
	 viewBox="0 -160 550 512" style="enable-background:new 0 0 512 512;" xml:space="preserve">
<g>
	<g>
		<path d="M507.63,43.396c-3.861-7.223-9.905-12.815-17.475-16.172L448.464,8.731c-21.552-9.551-46.296-7.713-66.179,4.915
			l-50.939,32.319c-3.526,2.237-4.57,6.907-2.333,10.433c2.237,3.526,6.907,4.57,10.433,2.333l50.942-32.321
			c15.61-9.914,35.031-11.354,51.949-3.858l6.053,2.684l-16.071,8.593c-3.492,1.867-5.184,6.1-3.628,9.741
			c1.252,2.927,4.058,4.61,6.968,4.61c1.202,0,2.423-0.288,3.558-0.894l26.701-14.275l18.107,8.031
			c4.462,1.979,8.014,5.256,10.272,9.479c4.624,8.649,2.878,19.362-4.242,26.051c-27.762,26.046-58.237,48.71-90.581,67.363
			c-11.848,6.84-24.049,13.369-36.879,19.739l6.634-11.342c1.524-2.605,1.556-5.913-0.175-8.385
			c-2.164-3.087-6.186-4.081-9.488-2.487l-128.103,61.775c-2.482,1.197-4.116,3.65-4.265,6.402l-0.454,8.404
			c-22.682,7.471-47.071,14.888-72.746,22.126l5.858-11.346c1.345-2.603,1.262-5.8-0.465-8.167
			c-2.176-2.983-6.108-3.927-9.353-2.391l-54.914,26.002c-2.252,1.066-3.833,3.173-4.228,5.632l-0.594,3.695
			c-6.854-1.11-13.183-4.696-17.638-10.172l-53.448-65.64l20.457-10.937l27.749,19.279c20.659,14.351,47.729,14.919,68.966,1.445
			L311.148,76.686c3.526-2.237,4.57-6.907,2.333-10.433s-6.907-4.57-10.433-2.333L234.4,107.475l-60.325-3.603
			c-1.393-0.082-2.784,0.222-4.015,0.88l-45.493,24.322c-1.919,1.026-3.414,2.765-3.951,4.873c-0.851,3.34,0.626,6.719,3.466,8.402
			l28.624,16.959l-24.42,15.494c-16.086,10.204-36.592,9.775-52.24-1.096l-31.548-21.918c-2.331-1.621-5.373-1.797-7.877-0.459
			L3.995,168.772c-1.992,1.065-3.403,2.964-3.847,5.178c-0.444,2.214,0.124,4.51,1.549,6.262l59.239,72.753
			c6.809,8.369,16.484,13.852,26.965,15.551l-6.748,41.978c-0.457,2.836,0.735,5.686,3.073,7.354
			c1.306,0.931,2.845,1.405,4.391,1.405c1.221,0,2.445-0.295,3.564-0.893l27.55-14.73c1.351-0.723,2.45-1.837,3.153-3.199
			l21.652-41.937c28.743-7.897,56.038-16.037,81.335-24.259l-4.827,89.47c-0.147,2.725,1.186,5.319,3.489,6.784
			c1.235,0.786,2.646,1.182,4.06,1.182c1.223,0,2.447-0.296,3.564-0.893l45.687-24.426c1.232-0.658,2.256-1.645,2.961-2.85
			l68.182-116.561c20.798-9.594,39.821-19.389,58.043-29.909c33.346-19.233,64.76-42.594,93.371-69.435
			C512.498,76.237,515.471,58.06,507.63,43.396z M143.337,136.183l31.969-17.092l37.277,2.227L167.03,150.22L143.337,136.183z
			 M110.528,291.406L98.5,297.836l6.69-41.611l31.106-14.73L110.528,291.406z M268.832,294.025l-31.968,17.092l5.19-96.205
			l101.758-49.072L268.832,294.025z"/>
	</g>
</g>
<g>
	<g>
		<path d="M178.081,195.886c-1.818-2.66-5.183-3.958-8.306-3.082c-2.99,0.839-5.19,3.452-5.505,6.539
			c-0.314,3.081,1.371,6.099,4.125,7.487c2.973,1.498,6.68,0.833,8.945-1.614C179.685,202.682,179.978,198.765,178.081,195.886z"/>
	</g>
</g>
<g>
	<g>
		<path d="M313.162,124.496c-1.965-3.679-6.541-5.07-10.22-3.104c-3.689,1.976-5.08,6.551-3.104,10.24
			c1.361,2.54,3.971,3.991,6.672,3.991c1.199,0,2.419-0.282,3.558-0.897C313.746,132.761,315.137,128.185,313.162,124.496z"/>
	</g>
</g>
<g>
	<g>
		<path d="M290.716,136.5c-1.965-3.679-6.551-5.07-10.23-3.094c-3.679,1.965-5.07,6.541-3.104,10.22
			c1.361,2.55,3.981,4.001,6.672,4.001c1.209,0,2.429-0.282,3.558-0.897C291.3,144.765,292.681,140.189,290.716,136.5z"/>
	</g>
</g>
<g>
	<g>
		<path d="M358.075,100.487c-1.976-3.679-6.551-5.07-10.23-3.094c-3.689,1.965-5.08,6.541-3.104,10.23
			c1.361,2.54,3.971,3.991,6.672,3.991c1.199,0,2.419-0.282,3.558-0.887C358.649,108.752,360.04,104.176,358.075,100.487z"/>
	</g>
</g>
<g>
	<g>
		<path d="M380.521,88.493c-1.965-3.689-6.551-5.08-10.23-3.104c-3.679,1.965-5.07,6.541-3.104,10.23
			c1.361,2.54,3.981,3.991,6.672,3.991c1.21,0,2.429-0.282,3.558-0.897C381.106,96.748,382.486,92.172,380.521,88.493z"/>
	</g>
</g>
<g>
	<g>
		<path d="M335.618,112.491c-1.965-3.679-6.551-5.07-10.23-3.094c-3.679,1.965-5.07,6.541-3.104,10.23
			c1.361,2.54,3.981,3.991,6.672,3.991c1.21,0,2.429-0.282,3.558-0.897C336.203,120.756,337.584,116.18,335.618,112.491z"/>
	</g>
</g>
<g>
	<g>
		<path d="M223.356,172.513c-1.965-3.679-6.541-5.07-10.23-3.104c-3.679,1.976-5.07,6.551-3.094,10.23
			c1.361,2.55,3.971,4.001,6.672,4.001c1.199,0,2.419-0.292,3.558-0.897C223.941,180.778,225.332,176.192,223.356,172.513z"/>
	</g>
</g>
<g>
	<g>
		<path d="M268.259,148.504c-1.965-3.679-6.541-5.07-10.22-3.104c-3.689,1.976-5.08,6.551-3.104,10.24
			c1.361,2.54,3.971,3.991,6.672,3.991c1.199,0,2.419-0.292,3.558-0.897C268.844,156.769,270.235,152.183,268.259,148.504z"/>
	</g>
</g>
<g>
	<g>
		<path d="M200.91,184.517c-1.965-3.679-6.551-5.07-10.23-3.104s-5.07,6.551-3.104,10.23c1.361,2.55,3.971,4.001,6.672,4.001
			c1.209,0,2.429-0.292,3.558-0.897C201.495,192.782,202.875,188.196,200.91,184.517z"/>
	</g>
</g>
<g>
	<g>
		<path d="M245.813,160.509c-1.965-3.679-6.551-5.07-10.23-3.104c-3.679,1.976-5.07,6.551-3.104,10.23
			c1.361,2.55,3.971,4.001,6.672,4.001c1.209,0,2.429-0.292,3.558-0.897C246.397,168.773,247.778,164.187,245.813,160.509z"/>
	</g>
</g>
<g>
	<g>
		<path d="M391.071,74.602c-2.625,2.508-3.031,6.631-1.045,9.648c1.697,2.578,4.942,3.845,7.941,3.174
			c3.215-0.72,5.636-3.538,5.874-6.821C404.331,73.831,395.973,69.917,391.071,74.602z"/>
	</g>
</g>
<g>
	<g>
		<path d="M504.44,386.246H10.561c-4.175,0-7.559,3.385-7.559,7.559v25.447v57.062v25.447c0,4.175,3.385,7.559,7.559,7.559h493.88
			c4.175,0,7.559-3.385,7.559-7.559v-25.447v-57.062v-25.447C512,389.63,508.615,386.246,504.44,386.246z M496.881,494.201H18.12
			v-10.328h478.761V494.201z M496.881,401.365v10.328H361.33c-4.175,0-7.559,3.385-7.559,7.559s3.385,7.559,7.559,7.559h135.551
			v41.943H18.12v-41.944h307.932c4.175,0,7.559-3.385,7.559-7.559s-3.385-7.559-7.559-7.559H18.12v-10.328L496.881,401.365
			L496.881,401.365z"/>
	</g>
</g>
<g>
</g>
<g>
</g>
<g>
</g>
<g>
</g>
<g>
</g>
<g>
</g>
<g>
</g>
<g>
</g>
<g>
</g>
<g>
</g>
<g>
</g>
<g>
</g>
<g>
</g>
<g>
</g>
<g>
</g>
</svg>
