<?xml version="1.0" encoding="UTF-8" standalone="no"?>
<!DOCTYPE svg PUBLIC "-//W3C//DTD SVG 1.1//EN" "http://www.w3.org/Graphics/SVG/1.1/DTD/svg11.dtd">
<svg version="1.1" xmlns="http://www.w3.org/2000/svg" xmlns:xlink="http://www.w3.org/1999/xlink" preserveAspectRatio="xMidYMid meet" viewBox="0 0 640 640" width="1000" height="1000"><defs><path d="M420.31 234.84L352.79 281.73L420.31 234.84Z" id="b4QJdmdTd"></path><path d="M312.05 172.64L312.06 172.64L297.48 150.8L257.03 178.36L271.6 200.2L290.21 187.52L327.26 243.04L349.09 228.16L312.05 172.64Z" id="a4it9cjxb2"></path><path d="M416.55 202.86L336.55 258.32L416.55 202.86Z" id="b4ZJlB25w"></path><path d="M299.85 133.25L326.68 139.05L306.66 161.95L310.53 195.4L286.79 178.84L262.35 193.71L267.69 160.58L248.72 136.33L275.76 132.41L288.48 102.54L299.85 133.25Z" id="b80w8T9qUz"></path><path d="M227.85 214.65L227.84 214.64L212.35 234.03L251.87 259.47L267.36 240.08L249.18 228.38L288.56 179.1L267.23 165.36L227.85 214.65Z" id="aHjKZndP7"></path><path d="M367.21 296.72L382.88 341.71L395.31 332.69L406.72 365.11L412.35 304.65L394.6 317.54L386.73 282.54L367.21 296.72Z" id="a3CRQpx3MB"></path></defs><g><g><g><g><use xlink:href="#b4QJdmdTd" opacity="1" fill-opacity="0" stroke="#000000" stroke-width="19" stroke-opacity="1"></use></g></g><g><use xlink:href="#a4it9cjxb2" opacity="1" fill="#070b01" fill-opacity="1"></use></g><g><g><use xlink:href="#b4ZJlB25w" opacity="1" fill-opacity="0" stroke="#000000" stroke-width="19" stroke-opacity="1"></use></g></g><g><use xlink:href="#b80w8T9qUz" opacity="1" fill="#070b01" fill-opacity="1"></use></g><g><use xlink:href="#aHjKZndP7" opacity="1" fill="#070b01" fill-opacity="1"></use></g><g><use xlink:href="#a3CRQpx3MB" opacity="1" fill="#070b01" fill-opacity="1"></use></g></g></g></svg>